<?xml version="1.0" encoding="utf-8"?>
<!-- Generator: Adobe Illustrator 27.0.1, SVG Export Plug-In . SVG Version: 6.00 Build 0)  -->
<svg version="1.1" id="Layer_1" xmlns="http://www.w3.org/2000/svg" xmlns:xlink="http://www.w3.org/1999/xlink" x="0px" y="0px"
	 viewBox="0 0 116 116" style="enable-background:new 0 0 116 116;" xml:space="preserve">
<style type="text/css">
	.st0{fill:#FFFFFF;}
	.st1{fill:#30D5C8;}
</style>
<g>
	<ellipse class="st0" cx="58" cy="58.4" rx="57.5" ry="57.4"/>
	<path class="st1" d="M95,14.5v44.3c0.1,10-3.8,19.5-10.7,26.7c-6.8,7.2-16.1,11.2-25.9,11.1c-9.8,0.1-19.3-3.9-25.8-11.1
		c-7.2-7.2-10.9-17-10.7-27.1c-0.2-10.1,3.5-19.9,10.7-27.1c6.7-7.2,16-11.3,25.8-11.2c7.8-0.1,15.5,2.5,21.6,7.4V5.4
		C50.7-6.7,17,7.2,4.9,36.6s1.8,62.9,31.2,75s62.9-1.8,75.1-31.1C120.7,57.2,114.1,30.6,95,14.5z"/>
	<path class="st1" d="M79.8,55.9c-0.5-4.8-2.7-9.3-6.3-12.7c-4-4.2-9.6-6.5-15.4-6.4c-5.7,0-11.3,2.3-15.3,6.4
		c-4.2,4-6.6,9.6-6.5,15.4c0.1,11.9,9.8,21.6,21.7,21.6c5.8,0.1,11.3-2.2,15.4-6.3c3.8-3.7,6.2-8.6,6.4-13.9c0-0.4-0.1-0.9-0.1-1.3
		L79.8,55.9z"/>
	<g>
		<path class="st0" d="M46.5,69.1c-0.9,0.1-1.8-0.3-2.4-1c-0.5-0.7-0.8-1.5-0.8-2.3s0.1-1.5,0.3-2.3c0.3-1,0.6-1.9,0.9-3
			c0.4-1,0.8-1.9,1.3-2.8c0.4-0.8,1-1.6,1.6-2.3c0.5-0.5,1.1-0.7,1.7-0.8l0.7,0.2c0.2,0.2,0.3,0.4,0.3,0.7c-0.1,0.6-0.4,1.1-0.7,1.6
			c-0.4,0.7-0.8,1.5-1.4,2.4c-0.6,0.9-1,1.9-1.4,2.9c-0.4,0.9-0.6,1.9-0.6,2.9c-0.1,0.6,0.1,1.3,0.4,1.8c0.4,0.3,0.9,0.5,1.4,0.5
			c1.1-0.1,2.1-0.6,2.9-1.4c1.4-1.3,2.5-2.9,3.3-4.7l0.4,0.5c-0.6,2-1.8,3.9-3.4,5.3C49.8,68.5,48.1,69.1,46.5,69.1z M51.2,51.2
			c-0.4,0-0.8-0.2-1.2-0.4c-0.3-0.2-0.5-0.6-0.5-1c0-0.7,0.4-1.3,1-1.6c0.6-0.4,1.3-0.6,2-0.6c0.4,0,0.7,0.1,1,0.3
			c0.3,0.2,0.5,0.6,0.5,1c-0.1,0.6-0.4,1.2-0.9,1.5C52.6,50.9,51.9,51.2,51.2,51.2z"/>
		<path class="st0" d="M66.2,68.9c-0.8,0.1-1.6-0.2-2.2-0.8c-0.5-0.5-0.7-1.2-0.7-1.9c0-0.6,0.1-1.2,0.3-1.7
			c0.2-0.6,0.3-1.2,0.5-1.8c0.2-0.6,0.3-1.3,0.3-1.9c0.1-0.5-0.1-1-0.4-1.4c-0.3-0.3-0.7-0.4-1.1-0.4c-0.9,0-1.8,0.4-2.5,1
			c-0.9,0.7-1.8,1.6-2.5,2.5l-2.2,3.2l-1.8,3c-0.4,0-0.9-0.1-1.3-0.3c-0.4-0.1-0.7-0.4-1-0.7c0.1-0.4,0.3-0.8,0.5-1.2
			c0.2-0.7,0.6-1.5,0.9-2.5c0.4-1,0.7-2,1-3.1c0.3-0.9,0.4-1.9,0.4-2.9c0.2-0.2,0.5-0.4,0.8-0.5c0.3-0.2,0.7-0.3,1.1-0.3
			c0.8,0,1.2,0.3,1.2,1c0,0.6-0.1,1.3-0.3,1.9c-0.2,0.9-0.4,1.8-0.7,2.8c0.7-1.1,1.4-2.1,2.3-3c0.8-0.9,1.8-1.8,2.8-2.5
			c0.9-0.6,1.9-0.9,2.9-0.9c0.9-0.1,1.8,0.3,2.3,1.1c0.5,0.7,0.8,1.6,0.8,2.5c0,0.7-0.2,1.5-0.4,2.2l-0.9,2
			c-0.2,0.6-0.4,1.3-0.4,1.9s0.1,0.9,0.4,1.1c0.2,0.2,0.4,0.3,0.7,0.3c0.8,0,1.5-0.3,2-0.9c0.8-0.7,1.4-1.4,2-2.3
			c0.6-0.9,1.1-1.9,1.6-2.9l0.6,0.5c-0.5,1.2-1.2,2.4-1.9,3.5c-0.7,0.9-1.4,1.8-2.3,2.5C68.3,68.7,67.2,68.9,66.2,68.9z"/>
	</g>
</g>
</svg>
